<svg width="1600" height="1000" viewBox="0 0 1600 1000" fill="none" xmlns="http://www.w3.org/2000/svg">
<rect width="1600" height="1000" fill="#08111F"/>
<rect y="760" width="1600" height="240" fill="#10233C"/>
<rect y="835" width="1600" height="165" fill="#0B1A2C"/>
<rect x="118" y="164" width="454" height="262" rx="34" fill="#12345A"/>
<rect x="156" y="208" width="178" height="58" rx="14" fill="#1F5EA8"/>
<rect x="156" y="288" width="250" height="26" rx="13" fill="#29486E"/>
<rect x="156" y="330" width="208" height="26" rx="13" fill="#29486E"/>
<rect x="986" y="144" width="336" height="212" rx="28" fill="#0F2743"/>
<path d="M1040 304H1274" stroke="#264A70" stroke-width="16" stroke-linecap="round"/>
<path d="M1084 260H1230" stroke="#264A70" stroke-width="16" stroke-linecap="round"/>
<rect x="826" y="573" width="474" height="161" rx="28" fill="#D9E5F4"/>
<rect x="1220" y="618" width="188" height="116" rx="24" fill="#214F83"/>
<rect x="1262" y="646" width="78" height="44" rx="12" fill="#9FD0FF"/>
<rect x="755" y="624" width="93" height="110" rx="22" fill="#F59E0B"/>
<rect x="878" y="538" width="278" height="35" rx="12" fill="#B1C4DA"/>
<rect x="914" y="492" width="179" height="44" rx="12" fill="#EAF2FB"/>
<circle cx="933" cy="744" r="41" fill="#0A1626"/>
<circle cx="933" cy="744" r="20" fill="#97AFC8"/>
<circle cx="1273" cy="744" r="41" fill="#0A1626"/>
<circle cx="1273" cy="744" r="20" fill="#97AFC8"/>
<circle cx="790" cy="744" r="34" fill="#0A1626"/>
<circle cx="790" cy="744" r="16" fill="#97AFC8"/>
<rect x="292" y="481" width="336" height="253" rx="30" fill="#193354"/>
<rect x="332" y="522" width="120" height="162" rx="18" fill="#315D8F"/>
<rect x="478" y="522" width="120" height="162" rx="18" fill="#315D8F"/>
<path d="M248 753H1439" stroke="#1E3C63" stroke-width="14" stroke-linecap="round"/>
<path d="M609 480C731.933 528.82 835.724 539.368 920.374 511.643C1005.02 483.918 1089.9 488.757 1174.99 526.16" stroke="#62B0FF" stroke-width="12" stroke-linecap="round"/>
<circle cx="918" cy="512" r="20" fill="#62B0FF"/>
<circle cx="1175" cy="526" r="20" fill="#F59E0B"/>
<rect x="1342" y="507" width="94" height="94" rx="22" fill="#F59E0B"/>
<rect x="1360" y="525" width="58" height="58" rx="12" fill="#FDE7B2"/>
</svg>
