<svg width="1400" height="900" viewBox="0 0 1400 900" fill="none" xmlns="http://www.w3.org/2000/svg">
<rect width="1400" height="900" fill="#0A1322"/>
<rect y="686" width="1400" height="214" fill="#10243D"/>
<rect x="90" y="234" width="398" height="452" rx="30" fill="#183555"/>
<rect x="138" y="286" width="130" height="122" rx="18" fill="#284F7A"/>
<rect x="288" y="286" width="130" height="122" rx="18" fill="#284F7A"/>
<rect x="138" y="432" width="130" height="122" rx="18" fill="#284F7A"/>
<rect x="288" y="432" width="130" height="122" rx="18" fill="#284F7A"/>
<rect x="540" y="378" width="454" height="192" rx="26" fill="#DCE8F6"/>
<rect x="920" y="430" width="176" height="140" rx="24" fill="#1E4F8A"/>
<rect x="952" y="454" width="80" height="48" rx="12" fill="#A9D7FF"/>
<rect x="484" y="444" width="76" height="126" rx="18" fill="#F59E0B"/>
<circle cx="650" cy="584" r="36" fill="#0B1728"/>
<circle cx="650" cy="584" r="17" fill="#97AFC8"/>
<circle cx="972" cy="584" r="36" fill="#0B1728"/>
<circle cx="972" cy="584" r="17" fill="#97AFC8"/>
<path d="M1068 214H1272" stroke="#27486D" stroke-width="18" stroke-linecap="round"/>
<path d="M1112 270H1272" stroke="#27486D" stroke-width="18" stroke-linecap="round"/>
<path d="M540 340C640 294 749 294 867 340" stroke="#63B1FF" stroke-width="12" stroke-linecap="round"/>
<rect x="1140" y="574" width="94" height="94" rx="22" fill="#F59E0B"/>
<rect x="1158" y="592" width="58" height="58" rx="12" fill="#FDE7B2"/>
</svg>
