<svg width="1200" height="800" viewBox="0 0 1200 800" fill="none" xmlns="http://www.w3.org/2000/svg">
<rect width="1200" height="800" fill="#0A1322"/>
<rect y="565" width="1200" height="235" fill="#10243D"/>
<rect x="748" y="170" width="248" height="318" rx="28" fill="#163252"/>
<rect x="788" y="212" width="70" height="70" rx="14" fill="#2B4E78"/>
<rect x="886" y="212" width="70" height="70" rx="14" fill="#2B4E78"/>
<circle cx="367" cy="254" r="106" fill="#F0C7A6"/>
<path d="M264 243C264 179.487 315.487 128 379 128C420.072 128 456.113 149.526 476.493 181.889C447.27 170.63 414.708 164.443 378.5 164.443C331.501 164.443 291.322 178.365 257.963 206.209C261.888 194.352 264 181.684 264 168.522V243Z" fill="#17293E"/>
<rect x="248" y="376" width="238" height="208" rx="42" fill="#F59E0B"/>
<path d="M186 622H1038" stroke="#274A70" stroke-width="14" stroke-linecap="round"/>
<rect x="162" y="612" width="164" height="56" rx="18" fill="#DCE8F6"/>
<rect x="970" y="612" width="114" height="56" rx="18" fill="#214F83"/>
</svg>
