<svg width="1200" height="800" viewBox="0 0 1200 800" fill="none" xmlns="http://www.w3.org/2000/svg">
<rect width="1200" height="800" fill="#0B1422"/>
<rect y="636" width="1200" height="164" fill="#10243D"/>
<rect x="116" y="392" width="416" height="178" rx="26" fill="#DCE7F5"/>
<rect x="462" y="438" width="154" height="132" rx="22" fill="#214F83"/>
<rect x="493" y="461" width="73" height="49" rx="10" fill="#9FD0FF"/>
<rect x="84" y="454" width="55" height="116" rx="16" fill="#F59E0B"/>
<circle cx="241" cy="580" r="40" fill="#0A1626"/>
<circle cx="241" cy="580" r="18" fill="#97AFC8"/>
<circle cx="489" cy="580" r="40" fill="#0A1626"/>
<circle cx="489" cy="580" r="18" fill="#97AFC8"/>
<rect x="706" y="278" width="316" height="250" rx="28" fill="#1A3555"/>
<rect x="760" y="336" width="86" height="86" rx="14" fill="#294D77"/>
<rect x="878" y="336" width="86" height="86" rx="14" fill="#294D77"/>
<path d="M663 578H1087" stroke="#274A70" stroke-width="14" stroke-linecap="round"/>
<path d="M620 256C685 206 748 184 809 190" stroke="#62B0FF" stroke-width="10" stroke-linecap="round"/>
<circle cx="615" cy="261" r="16" fill="#62B0FF"/>
</svg>
