<svg width="1600" height="1000" viewBox="0 0 1600 1000" fill="none" xmlns="http://www.w3.org/2000/svg">
<rect width="1600" height="1000" fill="#0A1323"/>
<rect x="104" y="114" width="1392" height="772" rx="42" fill="#0E1E35"/>
<rect x="164" y="174" width="526" height="652" rx="34" fill="#112946"/>
<rect x="726" y="174" width="710" height="652" rx="34" fill="#0B1728"/>
<path d="M815 684C900 545 998 463 1109 438C1220 413 1298 477 1343 630" stroke="#63B1FF" stroke-width="16" stroke-linecap="round" stroke-dasharray="18 22"/>
<circle cx="1109" cy="438" r="26" fill="#63B1FF"/>
<circle cx="1343" cy="630" r="26" fill="#F59E0B"/>
<rect x="221" y="246" width="410" height="106" rx="24" fill="#1E4F8A"/>
<rect x="221" y="385" width="410" height="374" rx="28" fill="#19365B"/>
<path d="M289 470H560" stroke="#90BEEA" stroke-width="18" stroke-linecap="round"/>
<path d="M289 538H560" stroke="#90BEEA" stroke-width="18" stroke-linecap="round"/>
<path d="M289 606H496" stroke="#90BEEA" stroke-width="18" stroke-linecap="round"/>
<rect x="832" y="252" width="196" height="74" rx="20" fill="#17395F"/>
<rect x="1061" y="252" width="262" height="74" rx="20" fill="#17395F"/>
<rect x="838" y="392" width="349" height="222" rx="28" fill="#182D49"/>
<rect x="1208" y="422" width="130" height="160" rx="20" fill="#F59E0B"/>
<circle cx="908" cy="735" r="38" fill="#D9E5F4"/>
<circle cx="1254" cy="735" r="38" fill="#D9E5F4"/>
<rect x="857" y="641" width="372" height="78" rx="22" fill="#D9E5F4"/>
<rect x="1179" y="667" width="165" height="52" rx="16" fill="#214F83"/>
<rect x="1213" y="684" width="70" height="22" rx="10" fill="#8ECCFF"/>
<rect x="809" y="676" width="58" height="43" rx="14" fill="#E59315"/>
<rect x="882" y="615" width="214" height="22" rx="10" fill="#B3C6DD"/>
<rect x="921" y="584" width="128" height="31" rx="10" fill="#EEF5FD"/>
<path d="M1018 437C973.989 389.865 921.106 356.507 859.351 336.927C797.596 317.347 729.146 311.782 654 320.231" stroke="#F59E0B" stroke-width="10" stroke-linecap="round"/>
<circle cx="654" cy="320" r="20" fill="#F59E0B"/>
</svg>
